<svg width="327" height="40" viewBox="0 0 327 40" fill="none" xmlns="http://www.w3.org/2000/svg">
<rect width="40" height="40" rx="20" fill="white"/>
<path d="M14.47 13.0005C14.4697 13.5309 14.2587 14.0395 13.8835 14.4144C13.5082 14.7893 12.9994 14.9998 12.469 14.9995C11.9385 14.9992 11.4299 14.7883 11.0551 14.413C10.6802 14.0378 10.4697 13.5289 10.47 12.9985C10.4702 12.4681 10.6812 11.9595 11.0565 11.5846C11.4317 11.2097 11.9405 10.9992 12.471 10.9995C13.0014 10.9998 13.51 11.2107 13.8849 11.586C14.2598 11.9613 14.4702 12.4701 14.47 13.0005ZM14.53 16.4805H10.53V29.0005H14.53V16.4805ZM20.85 16.4805H16.87V29.0005H20.81V22.4305C20.81 18.7705 25.58 18.4305 25.58 22.4305V29.0005H29.53V21.0705C29.53 14.9005 22.47 15.1305 20.81 18.1605L20.85 16.4805Z" fill="#151515"/>
<rect x="60" width="40" height="40" rx="20" fill="white"/>
<path d="M81.0281 10.0007C81.7578 9.99794 82.4876 10.0053 83.2171 10.0227L83.4111 10.0297C83.6351 10.0377 83.8561 10.0477 84.1231 10.0597C85.1871 10.1097 85.9131 10.2777 86.5501 10.5247C87.2101 10.7787 87.7661 11.1227 88.3221 11.6787C88.8305 12.1783 89.2239 12.7827 89.4751 13.4497C89.7221 14.0867 89.8901 14.8137 89.9401 15.8777C89.9521 16.1437 89.9621 16.3657 89.9701 16.5897L89.9761 16.7837C89.9939 17.5129 90.0015 18.2423 89.9991 18.9717L90.0001 19.7177V21.0277C90.0026 21.7575 89.9949 22.4872 89.9771 23.2167L89.9711 23.4107C89.9631 23.6347 89.9531 23.8557 89.9411 24.1227C89.8911 25.1867 89.7211 25.9127 89.4751 26.5497C89.2247 27.2175 88.8312 27.8223 88.3221 28.3217C87.8221 28.8301 87.2174 29.2235 86.5501 29.4747C85.9131 29.7217 85.1871 29.8897 84.1231 29.9397C83.8561 29.9517 83.6351 29.9617 83.4111 29.9697L83.2171 29.9757C82.4876 29.9935 81.7578 30.0012 81.0281 29.9987L80.2821 29.9997H78.9731C78.2434 30.0022 77.5136 29.9945 76.7841 29.9767L76.5901 29.9707C76.3527 29.9621 76.1154 29.9521 75.8781 29.9407C74.8141 29.8907 74.0881 29.7207 73.4501 29.4747C72.7828 29.2241 72.1783 28.8306 71.6791 28.3217C71.1701 27.822 70.7763 27.2173 70.5251 26.5497C70.2781 25.9127 70.1101 25.1867 70.0601 24.1227C70.049 23.8855 70.039 23.6481 70.0301 23.4107L70.0251 23.2167C70.0067 22.4872 69.9983 21.7575 70.0001 21.0277V18.9717C69.9973 18.2423 70.0046 17.5129 70.0221 16.7837L70.0291 16.5897C70.0371 16.3657 70.0471 16.1437 70.0591 15.8777C70.1091 14.8127 70.2771 14.0877 70.5241 13.4497C70.7755 12.7824 71.1701 12.1782 71.6801 11.6797C72.179 11.1705 72.7831 10.7763 73.4501 10.5247C74.0881 10.2777 74.8131 10.1097 75.8781 10.0597L76.5901 10.0297L76.7841 10.0247C77.5133 10.0063 78.2427 9.99798 78.9721 9.99974L81.0281 10.0007ZM80.0001 15.0007C79.3376 14.9914 78.6798 15.1138 78.0651 15.3608C77.4503 15.6079 76.8907 15.9746 76.4189 16.4398C75.9471 16.905 75.5725 17.4593 75.3168 18.0705C75.0611 18.6817 74.9294 19.3377 74.9294 20.0002C74.9294 20.6628 75.0611 21.3188 75.3168 21.93C75.5725 22.5412 75.9471 23.0955 76.4189 23.5607C76.8907 24.0259 77.4503 24.3926 78.0651 24.6397C78.6798 24.8867 79.3376 25.0091 80.0001 24.9997C81.3262 24.9997 82.5979 24.473 83.5356 23.5353C84.4733 22.5976 85.0001 21.3258 85.0001 19.9997C85.0001 18.6737 84.4733 17.4019 83.5356 16.4642C82.5979 15.5265 81.3262 15.0007 80.0001 15.0007ZM80.0001 17.0007C80.3986 16.9934 80.7946 17.0655 81.1649 17.2129C81.5352 17.3604 81.8724 17.5801 82.1569 17.8593C82.4413 18.1385 82.6673 18.4716 82.8215 18.8391C82.9758 19.2066 83.0553 19.6012 83.0554 19.9997C83.0554 20.3983 82.9761 20.7929 82.8219 21.1605C82.6678 21.528 82.4419 21.8612 82.1576 22.1405C81.8732 22.4198 81.5361 22.6396 81.1658 22.7871C80.7955 22.9347 80.3996 23.007 80.0011 22.9997C79.2054 22.9997 78.4424 22.6837 77.8798 22.1211C77.3172 21.5585 77.0011 20.7954 77.0011 19.9997C77.0011 19.2041 77.3172 18.441 77.8798 17.8784C78.4424 17.3158 79.2054 16.9997 80.0011 16.9997L80.0001 17.0007ZM85.2501 13.5007C84.9275 13.5137 84.6224 13.6509 84.3987 13.8837C84.175 14.1165 84.0501 14.4269 84.0501 14.7497C84.0501 15.0726 84.175 15.3829 84.3987 15.6158C84.6224 15.8486 84.9275 15.9858 85.2501 15.9987C85.5816 15.9987 85.8996 15.867 86.134 15.6326C86.3684 15.3982 86.5001 15.0803 86.5001 14.7487C86.5001 14.4172 86.3684 14.0993 86.134 13.8649C85.8996 13.6304 85.5816 13.4987 85.2501 13.4987V13.5007Z" fill="#151515"/>
<rect x="120" width="40" height="40" rx="20" fill="white"/>
<path d="M129 10H131.5L146.5 30H144L129 10Z" fill="#151515"/>
<path d="M133.5 10H136L151 30H148.5L133.5 10Z" fill="#151515"/>
<path d="M131 10H136V12H131V10Z" fill="#151515"/>
<path d="M144 30H149V28H144V30Z" fill="#151515"/>
<path d="M146.5 10H150L133 30H129.5L146.5 10Z" fill="#151515"/>
</svg>
